<svg xmlns="http://www.w3.org/2000/svg" xmlns:xlink="http://www.w3.org/1999/xlink" width="400" height="400" viewBox="0 0 400 400"><defs><linearGradient id="gradient-20"><stop stop-color="#616162" offset="0"/><stop stop-color="#e6e7e9" offset="0.5"/><stop stop-color="#616162" offset="1"/></linearGradient></defs>
<rect data-name="background" width="100%" height="100%" fill="#2b4361"/><g data-name="watermark" class="watermark-logodesign" stroke="#ffffff" transform="translate(40, 280) scale(1.5) rotate(-45)" style="opacity:0.040000010281801224;"><path fill="#000000" d="M19.52,53.48c-10.32,0-17.72-7.64-17.72-17.32c0-10,8.2-17.76,18.32-17.76c10.36,0,17.76,7.48,17.76,17.56c0,6.24-3.56,9.84-7.84,9.84c-2.96,0-4.44-1.56-5.04-3.72c-1.48,2-3.64,3.08-6.16,3.08c-4.84,0-8.52-3.8-8.52-8.96c0-5.2,3.64-9,8.56-9c2.36,0,4.52,0.96,6,3l0-2.52l3.44,0l0,12.48c0,1.68,0.6,2.96,2.24,2.96c2.12,0,4.2-2.52,4.2-7.12c0-8.28-5.76-14.68-14.6-14.68c-8.48,0-15.24,6.44-15.24,14.84c0,8.16,6.24,14.4,14.68,14.4c2.88,0,6.04-0.68,8.2-2.4l0.8,2.88c-2.36,1.68-5.68,2.44-9.08,2.44z M19.36,41.92c3.24,0,5.64-2.4,5.64-5.76c0-3.32-2.36-5.68-5.64-5.68c-3.2,0-5.48,2.36-5.48,5.68s2.32,5.76,5.48,5.76z M46.84,42.4l14.72,0l0,4l-19.08,0l0-28l4.36,0l0,24z M74.8,46.92c-6.16,0-10.68-4.56-10.68-10.6c0-6,4.52-10.56,10.68-10.56s10.68,4.56,10.68,10.56c0,6.04-4.52,10.6-10.68,10.6z M74.8,43.12c3.84,0,6.6-2.92,6.6-6.76c0-3.88-2.76-6.8-6.6-6.8s-6.6,2.92-6.6,6.8c0,3.84,2.76,6.76,6.6,6.76z M105.68,26.28l4.2,0l0,19.4c0,5.6-4.08,9.64-10.2,9.64c-4.84,0-7.92-2.24-9.6-5.24l3.68-1.36c1.2,2,3.12,3.08,6,3.08c3.84,0,5.88-2.64,5.92-6.08l0-2.96c-1.56,2.12-4,3.4-7.08,3.4c-5.84,0-10.04-4.44-10.04-10.2c0-5.96,4.2-10.2,10.04-10.2c3.08,0,5.52,1.28,7.08,3.36l0-2.84z M99.24,42.4c3.72,0,6.56-2.72,6.56-6.44s-2.84-6.4-6.56-6.4c-3.88,0-6.56,2.68-6.56,6.4s2.68,6.44,6.56,6.44z M124.92,46.92c-6.16,0-10.68-4.56-10.68-10.6c0-6,4.52-10.56,10.68-10.56s10.68,4.56,10.68,10.56c0,6.04-4.52,10.6-10.68,10.6z M124.92,43.12c3.84,0,6.6-2.92,6.6-6.76c0-3.88-2.76-6.8-6.6-6.8s-6.6,2.92-6.6,6.8c0,3.84,2.76,6.76,6.6,6.76z M141.88,46.68c-1.56,0-2.76-1.2-2.76-2.72c0-1.48,1.2-2.68,2.76-2.68s2.76,1.2,2.76,2.68c0,1.52-1.2,2.72-2.76,2.72z M158.2,46.92c-5.68,0-10-4.52-10-10.6c0-6.04,4.32-10.56,10-10.56c3.24,0,5.72,1.4,7.24,3.56l0-3.04l4.16,0l0,20.12l-4.16,0l0-3.04c-1.52,2.16-4,3.56-7.24,3.56z M158.88,43.16c3.68,0,6.64-2.88,6.64-6.84c0-3.92-2.96-6.8-6.64-6.8c-3.84,0-6.56,2.84-6.56,6.8s2.72,6.84,6.56,6.84z M186.6,25.76c5.68,0,10.04,4.52,10.04,10.56c0,6.08-4.36,10.6-10.04,10.6c-3.2,0-5.68-1.4-7.2-3.56l0,11.44l-4.2,0l0-28.52l4.2,0l0,3.04c1.52-2.16,4-3.56,7.2-3.56z M185.92,43.16c3.84,0,6.56-2.88,6.56-6.84s-2.72-6.8-6.56-6.8c-3.68,0-6.64,2.88-6.64,6.8c0,3.96,2.96,6.84,6.64,6.84z M212.36,25.76c5.68,0,10.04,4.52,10.04,10.56c0,6.08-4.36,10.6-10.04,10.6c-3.2,0-5.68-1.4-7.2-3.56l0,11.44l-4.2,0l0-28.52l4.2,0l0,3.04c1.52-2.16,4-3.56,7.2-3.56z M211.68,43.16c3.84,0,6.56-2.88,6.56-6.84s-2.72-6.8-6.56-6.8c-3.68,0-6.64,2.88-6.64,6.8c0,3.96,2.96,6.84,6.64,6.84z"/></g><g data-name="icon" fill="url(#gradient-20)" data="id:4454819" transform="translate(130.8498656229207,96.67433692441591) scale(1.080471614405244)">
    <title>1</title><path d="M20.5906,43.2654a3.10674,3.10674,0,0,0,5.20168-3.39853A11.02913,11.02913,0,0,1,25.961,29.44094a17.08831,17.08831,0,0,0-.16869-16.64,3.10674,3.10674,0,0,0-5.20168,3.39853,11.02972,11.02972,0,0,1-.16869,10.42581A17.08807,17.08807,0,0,0,20.5906,43.2654Z"/><path d="M37.20558,35.23206a3.10674,3.10674,0,1,0,5.20168-3.39853,11.02913,11.02913,0,0,1,.16869-10.42593,17.08831,17.08831,0,0,0-.16869-16.64,3.10674,3.10674,0,0,0-5.20168,3.39853A11.02972,11.02972,0,0,1,37.03689,18.592,17.08807,17.08807,0,0,0,37.20558,35.23206Z"/><path d="M85.59281,31.83342A3.10674,3.10674,0,0,0,90.79449,35.232a17.08831,17.08831,0,0,0,.16869-16.64A11.02913,11.02913,0,0,1,90.79449,8.166a3.10674,3.10674,0,1,0-5.20168-3.39853,17.08807,17.08807,0,0,0-.16869,16.6401A11.02972,11.02972,0,0,1,85.59281,31.83342Z"/><path d="M102.20779,39.86676a3.10674,3.10674,0,0,0,5.20168,3.39853,17.08831,17.08831,0,0,0,.16869-16.64,11.02913,11.02913,0,0,1-.16869-10.42593,3.10674,3.10674,0,1,0-5.20168-3.39853,17.08807,17.08807,0,0,0-.16869,16.6401A11.02972,11.02972,0,0,1,102.20779,39.86676Z"/><path d="M117.59328,84.09066A44.29929,44.29929,0,0,0,80.60266,40.40432a16.61177,16.61177,0,0,0-33.20781,0A44.2945,44.2945,0,0,0,10.40672,84.08817V96.46808H117.59328ZM53.65563,39.81527a10.40184,10.40184,0,0,1,20.6862,0C73.99887,39.80781,53.99865,39.80781,53.65563,39.81527Z"/><path d="M2.56276,101.52592v5.60841a7.56437,7.56437,0,0,0,7.56435,7.56435h12.831v6.83118a3.11051,3.11051,0,0,0,3.11051,3.11051h75.86266a3.11051,3.11051,0,0,0,3.11051-3.11051v-6.83118h12.831a7.56437,7.56437,0,0,0,7.56435-7.56435v-5.60841Z"/>
    </g><g data-name="business_name" fill="#ffffff" data="id:291" transform="translate(58.4067032167681,218.43946218527475) scale(1.678839394582096)"><path d="M1.64,20l11.64,0l0,4l-7.24,0l0,7.8l5.68,0l0,4l-5.68,0l0,12.2l-4.4,0l0-28z M16.8,46.56q-1.72-1.84-1.72-5.2l0-14.72q0-3.36,1.72-5.2t4.96-1.84t4.96,1.84t1.72,5.2l0,14.72q0,3.36-1.72,5.2t-4.96,1.84t-4.96-1.84z M24.04,41.64l0-15.28q0-2.76-2.28-2.76t-2.28,2.76l0,15.28q0,2.76,2.28,2.76t2.28-2.76z M32.8,46.56q-1.72-1.84-1.72-5.2l0-14.72q0-3.36,1.72-5.2t4.96-1.84t4.96,1.84t1.72,5.2l0,14.72q0,3.36-1.72,5.2t-4.96,1.84t-4.96-1.84z M40.04,41.64l0-15.28q0-2.76-2.28-2.76t-2.28,2.76l0,15.28q0,2.76,2.28,2.76t2.28-2.76z M47.4,20l6.72,0q3.28,0,4.92,1.76t1.64,5.16l0,14.16q0,3.4-1.64,5.16t-4.92,1.76l-6.72,0l0-28z M54.04,44q1.08,0,1.66-0.64t0.58-2.08l0-14.56q0-1.44-0.58-2.08t-1.66-0.64l-2.24,0l0,20l2.24,0z M63.64,20l12,0l0,4l-7.6,0l0,7.4l6.04,0l0,4l-6.04,0l0,8.6l7.6,0l0,4l-12,0l0-28z M78.16,20l4.4,0l0,24l7.24,0l0,4l-11.64,0l0-28z M91.92,20l4.4,0l0,28l-4.4,0l0-28z M100.98,46.6q-1.66-1.8-1.66-5.08l0-15.04q0-3.28,1.66-5.08t4.82-1.8t4.82,1.8t1.66,5.08l0,2.96l-4.16,0l0-3.24q0-2.6-2.2-2.6t-2.2,2.6l0,15.64q0,2.56,2.2,2.56t2.2-2.56l0-4.28l4.16,0l0,3.96q0,3.28-1.66,5.08t-4.82,1.8t-4.82-1.8z M114.92,20l4.4,0l0,28l-4.4,0l0-28z M124,46.56q-1.72-1.84-1.72-5.2l0-14.72q0-3.36,1.72-5.2t4.96-1.84t4.96,1.84t1.72,5.2l0,14.72q0,3.36-1.72,5.2t-4.96,1.84t-4.96-1.84z M131.24,41.64l0-15.28q0-2.76-2.28-2.76t-2.28,2.76l0,15.28q0,2.76,2.28,2.76t2.28-2.76z M140.12,46.58q-1.68-1.82-1.68-5.22l0-21.36l4.4,0l0,21.68q0,1.44,0.58,2.08t1.66,0.64t1.66-0.64t0.58-2.08l0-21.68l4.24,0l0,21.36q0,3.4-1.68,5.22t-4.88,1.82t-4.88-1.82z M155.56,46.58q-1.64-1.82-1.64-5.22l0-1.6l4.16,0l0,1.92q0,2.72,2.28,2.72q1.12,0,1.7-0.66t0.58-2.14q0-1.76-0.8-3.1t-2.96-3.22q-2.72-2.4-3.8-4.34t-1.08-4.38q0-3.32,1.68-5.14t4.88-1.82q3.16,0,4.78,1.82t1.62,5.22l0,1.16l-4.16,0l0-1.44q0-1.44-0.56-2.1t-1.64-0.66q-2.2,0-2.2,2.68q0,1.52,0.82,2.84t2.98,3.2q2.76,2.4,3.8,4.36t1.04,4.6q0,3.44-1.7,5.28t-4.94,1.84q-3.2,0-4.84-1.82z"/></g></svg>